<mxfile host="Electron" modified="2024-01-28T12:18:41.435Z" agent="Mozilla/5.0 (Windows NT 10.0; Win64; x64) AppleWebKit/537.36 (KHTML, like Gecko) draw.io/22.0.3 Chrome/114.0.5735.289 Electron/25.8.4 Safari/537.36" etag="vxN9uPODXkLKjvLXkugY" version="22.0.3" type="device">
  <diagram id="R2lEEEUBdFMjLlhIrx00" name="Page-1">
    <mxGraphModel dx="1518" dy="740" grid="1" gridSize="10" guides="1" tooltips="1" connect="1" arrows="1" fold="1" page="1" pageScale="1" pageWidth="850" pageHeight="1100" math="0" shadow="0" extFonts="Permanent Marker^https://fonts.googleapis.com/css?family=Permanent+Marker">
      <root>
        <mxCell id="0" />
        <mxCell id="1" parent="0" />
        <mxCell id="3p6yg__9nnK3ZTHGhMpI-1" value="Student" style="rounded=1;arcSize=10;whiteSpace=wrap;html=1;align=center;" vertex="1" parent="1">
          <mxGeometry x="425" y="510" width="115" height="50" as="geometry" />
        </mxCell>
        <mxCell id="3p6yg__9nnK3ZTHGhMpI-2" value="Department" style="rounded=1;arcSize=10;whiteSpace=wrap;html=1;align=center;" vertex="1" parent="1">
          <mxGeometry x="850" y="410" width="110" height="50" as="geometry" />
        </mxCell>
        <mxCell id="3p6yg__9nnK3ZTHGhMpI-3" value="" style="endArrow=none;html=1;rounded=0;exitX=0;exitY=0.75;exitDx=0;exitDy=0;" edge="1" parent="1" source="3p6yg__9nnK3ZTHGhMpI-1" target="3p6yg__9nnK3ZTHGhMpI-4">
          <mxGeometry relative="1" as="geometry">
            <mxPoint x="330" y="550" as="sourcePoint" />
            <mxPoint x="760" y="550" as="targetPoint" />
          </mxGeometry>
        </mxCell>
        <mxCell id="3p6yg__9nnK3ZTHGhMpI-4" value="Email" style="ellipse;whiteSpace=wrap;html=1;align=center;" vertex="1" parent="1">
          <mxGeometry x="220" y="520" width="100" height="40" as="geometry" />
        </mxCell>
        <mxCell id="3p6yg__9nnK3ZTHGhMpI-5" value="" style="endArrow=none;html=1;rounded=0;exitX=0.5;exitY=0;exitDx=0;exitDy=0;" edge="1" parent="1" source="3p6yg__9nnK3ZTHGhMpI-1" target="3p6yg__9nnK3ZTHGhMpI-6">
          <mxGeometry relative="1" as="geometry">
            <mxPoint x="410" y="510" as="sourcePoint" />
            <mxPoint x="660" y="550" as="targetPoint" />
          </mxGeometry>
        </mxCell>
        <mxCell id="3p6yg__9nnK3ZTHGhMpI-6" value="Address" style="ellipse;whiteSpace=wrap;html=1;align=center;" vertex="1" parent="1">
          <mxGeometry x="434.5" y="339" width="100" height="40" as="geometry" />
        </mxCell>
        <mxCell id="3p6yg__9nnK3ZTHGhMpI-7" value="" style="endArrow=none;html=1;rounded=0;exitX=0.25;exitY=0;exitDx=0;exitDy=0;" edge="1" parent="1" source="3p6yg__9nnK3ZTHGhMpI-1" target="3p6yg__9nnK3ZTHGhMpI-8">
          <mxGeometry relative="1" as="geometry">
            <mxPoint x="290" y="510" as="sourcePoint" />
            <mxPoint x="540" y="550" as="targetPoint" />
          </mxGeometry>
        </mxCell>
        <mxCell id="3p6yg__9nnK3ZTHGhMpI-8" value="ID" style="ellipse;whiteSpace=wrap;html=1;align=center;fontStyle=4" vertex="1" parent="1">
          <mxGeometry x="375" y="380" width="100" height="40" as="geometry" />
        </mxCell>
        <mxCell id="3p6yg__9nnK3ZTHGhMpI-9" value="" style="endArrow=none;html=1;rounded=0;exitX=0.406;exitY=-0.008;exitDx=0;exitDy=0;exitPerimeter=0;" edge="1" parent="1" source="3p6yg__9nnK3ZTHGhMpI-2" target="3p6yg__9nnK3ZTHGhMpI-10">
          <mxGeometry relative="1" as="geometry">
            <mxPoint x="900" y="390" as="sourcePoint" />
            <mxPoint x="1090" y="660" as="targetPoint" />
          </mxGeometry>
        </mxCell>
        <mxCell id="3p6yg__9nnK3ZTHGhMpI-10" value="ID" style="ellipse;whiteSpace=wrap;html=1;align=center;fontStyle=4" vertex="1" parent="1">
          <mxGeometry x="810" y="300" width="100" height="40" as="geometry" />
        </mxCell>
        <mxCell id="3p6yg__9nnK3ZTHGhMpI-11" value="" style="endArrow=none;html=1;rounded=0;exitX=0.75;exitY=0;exitDx=0;exitDy=0;" edge="1" parent="1" source="3p6yg__9nnK3ZTHGhMpI-2" target="3p6yg__9nnK3ZTHGhMpI-12">
          <mxGeometry relative="1" as="geometry">
            <mxPoint x="850" y="630" as="sourcePoint" />
            <mxPoint x="1100" y="670" as="targetPoint" />
          </mxGeometry>
        </mxCell>
        <mxCell id="3p6yg__9nnK3ZTHGhMpI-12" value="Name" style="ellipse;whiteSpace=wrap;html=1;align=center;" vertex="1" parent="1">
          <mxGeometry x="920" y="300" width="100" height="40" as="geometry" />
        </mxCell>
        <mxCell id="3p6yg__9nnK3ZTHGhMpI-31" value="Grade" style="rounded=1;arcSize=10;whiteSpace=wrap;html=1;align=center;" vertex="1" parent="1">
          <mxGeometry x="650" y="830" width="110" height="50" as="geometry" />
        </mxCell>
        <mxCell id="3p6yg__9nnK3ZTHGhMpI-32" value="" style="endArrow=none;html=1;rounded=0;exitX=0;exitY=1;exitDx=0;exitDy=0;entryX=0.5;entryY=0;entryDx=0;entryDy=0;" edge="1" parent="1" source="3p6yg__9nnK3ZTHGhMpI-31" target="3p6yg__9nnK3ZTHGhMpI-108">
          <mxGeometry relative="1" as="geometry">
            <mxPoint x="660" y="1110" as="sourcePoint" />
            <mxPoint x="709.0125383062664" y="950.0039007018963" as="targetPoint" />
          </mxGeometry>
        </mxCell>
        <mxCell id="3p6yg__9nnK3ZTHGhMpI-34" value="" style="endArrow=none;html=1;rounded=0;exitX=0.5;exitY=1;exitDx=0;exitDy=0;entryX=0.432;entryY=0.055;entryDx=0;entryDy=0;entryPerimeter=0;" edge="1" parent="1" source="3p6yg__9nnK3ZTHGhMpI-31" target="3p6yg__9nnK3ZTHGhMpI-35">
          <mxGeometry relative="1" as="geometry">
            <mxPoint x="670" y="1120" as="sourcePoint" />
            <mxPoint x="802.4311617728176" y="951.2753171526081" as="targetPoint" />
          </mxGeometry>
        </mxCell>
        <mxCell id="3p6yg__9nnK3ZTHGhMpI-35" value="Maximum&lt;br&gt;degree" style="ellipse;whiteSpace=wrap;html=1;align=center;" vertex="1" parent="1">
          <mxGeometry x="665" y="950" width="100" height="40" as="geometry" />
        </mxCell>
        <mxCell id="3p6yg__9nnK3ZTHGhMpI-36" value="" style="endArrow=none;html=1;rounded=0;exitX=0;exitY=0.5;exitDx=0;exitDy=0;entryX=1;entryY=0;entryDx=0;entryDy=0;" edge="1" parent="1" source="3p6yg__9nnK3ZTHGhMpI-31" target="3p6yg__9nnK3ZTHGhMpI-37">
          <mxGeometry relative="1" as="geometry">
            <mxPoint x="520" y="1100" as="sourcePoint" />
            <mxPoint x="604.8533276318155" y="960.9028644733799" as="targetPoint" />
          </mxGeometry>
        </mxCell>
        <mxCell id="3p6yg__9nnK3ZTHGhMpI-37" value="&lt;u&gt;Grade Letter&lt;/u&gt;" style="ellipse;whiteSpace=wrap;html=1;align=center;" vertex="1" parent="1">
          <mxGeometry x="490" y="890" width="100" height="40" as="geometry" />
        </mxCell>
        <mxCell id="3p6yg__9nnK3ZTHGhMpI-42" value="Has&lt;br&gt;Major" style="shape=rhombus;perimeter=rhombusPerimeter;whiteSpace=wrap;html=1;align=center;" vertex="1" parent="1">
          <mxGeometry x="620" y="430" width="70" height="70" as="geometry" />
        </mxCell>
        <mxCell id="3p6yg__9nnK3ZTHGhMpI-50" value="Course" style="rounded=1;arcSize=10;whiteSpace=wrap;html=1;align=center;" vertex="1" parent="1">
          <mxGeometry x="1030" y="710" width="110" height="50" as="geometry" />
        </mxCell>
        <mxCell id="3p6yg__9nnK3ZTHGhMpI-51" value="Offer" style="shape=rhombus;perimeter=rhombusPerimeter;whiteSpace=wrap;html=1;align=center;" vertex="1" parent="1">
          <mxGeometry x="960" y="550" width="70" height="60" as="geometry" />
        </mxCell>
        <mxCell id="3p6yg__9nnK3ZTHGhMpI-60" value="Phone" style="ellipse;shape=doubleEllipse;margin=3;whiteSpace=wrap;html=1;align=center;" vertex="1" parent="1">
          <mxGeometry x="520" y="370" width="100" height="40" as="geometry" />
        </mxCell>
        <mxCell id="3p6yg__9nnK3ZTHGhMpI-61" value="" style="endArrow=none;html=1;rounded=0;exitX=0.423;exitY=1.108;exitDx=0;exitDy=0;exitPerimeter=0;entryX=0.584;entryY=0.047;entryDx=0;entryDy=0;entryPerimeter=0;" edge="1" parent="1" source="3p6yg__9nnK3ZTHGhMpI-60" target="3p6yg__9nnK3ZTHGhMpI-1">
          <mxGeometry relative="1" as="geometry">
            <mxPoint x="840" y="580" as="sourcePoint" />
            <mxPoint x="1000" y="580" as="targetPoint" />
          </mxGeometry>
        </mxCell>
        <mxCell id="3p6yg__9nnK3ZTHGhMpI-62" value="" style="endArrow=none;html=1;rounded=0;exitX=0;exitY=0;exitDx=0;exitDy=0;" edge="1" parent="1" target="3p6yg__9nnK3ZTHGhMpI-63" source="3p6yg__9nnK3ZTHGhMpI-1">
          <mxGeometry relative="1" as="geometry">
            <mxPoint x="440" y="535.0000000000002" as="sourcePoint" />
            <mxPoint x="760" y="600" as="targetPoint" />
          </mxGeometry>
        </mxCell>
        <mxCell id="3p6yg__9nnK3ZTHGhMpI-63" value="Fname" style="ellipse;whiteSpace=wrap;html=1;align=center;" vertex="1" parent="1">
          <mxGeometry x="300" y="420" width="100" height="40" as="geometry" />
        </mxCell>
        <mxCell id="3p6yg__9nnK3ZTHGhMpI-64" value="" style="endArrow=none;html=1;rounded=0;exitX=0;exitY=0.5;exitDx=0;exitDy=0;" edge="1" parent="1" target="3p6yg__9nnK3ZTHGhMpI-65" source="3p6yg__9nnK3ZTHGhMpI-1">
          <mxGeometry relative="1" as="geometry">
            <mxPoint x="415" y="580" as="sourcePoint" />
            <mxPoint x="750" y="650" as="targetPoint" />
          </mxGeometry>
        </mxCell>
        <mxCell id="3p6yg__9nnK3ZTHGhMpI-65" value="Lname" style="ellipse;whiteSpace=wrap;html=1;align=center;" vertex="1" parent="1">
          <mxGeometry x="275" y="470" width="100" height="40" as="geometry" />
        </mxCell>
        <mxCell id="3p6yg__9nnK3ZTHGhMpI-66" value="" style="endArrow=none;html=1;rounded=0;exitX=0;exitY=1;exitDx=0;exitDy=0;" edge="1" parent="1" target="3p6yg__9nnK3ZTHGhMpI-67" source="3p6yg__9nnK3ZTHGhMpI-1">
          <mxGeometry relative="1" as="geometry">
            <mxPoint x="380" y="570" as="sourcePoint" />
            <mxPoint x="770" y="560" as="targetPoint" />
          </mxGeometry>
        </mxCell>
        <mxCell id="3p6yg__9nnK3ZTHGhMpI-67" value="Password" style="ellipse;whiteSpace=wrap;html=1;align=center;" vertex="1" parent="1">
          <mxGeometry x="210" y="570" width="100" height="40" as="geometry" />
        </mxCell>
        <mxCell id="3p6yg__9nnK3ZTHGhMpI-68" value="" style="endArrow=none;html=1;rounded=0;exitX=0.25;exitY=1;exitDx=0;exitDy=0;" edge="1" parent="1" target="3p6yg__9nnK3ZTHGhMpI-69" source="3p6yg__9nnK3ZTHGhMpI-1">
          <mxGeometry relative="1" as="geometry">
            <mxPoint x="445" y="560" as="sourcePoint" />
            <mxPoint x="780" y="570" as="targetPoint" />
          </mxGeometry>
        </mxCell>
        <mxCell id="3p6yg__9nnK3ZTHGhMpI-69" value="Level" style="ellipse;whiteSpace=wrap;html=1;align=center;" vertex="1" parent="1">
          <mxGeometry x="260" y="620" width="100" height="40" as="geometry" />
        </mxCell>
        <mxCell id="3p6yg__9nnK3ZTHGhMpI-70" value="" style="endArrow=none;html=1;rounded=0;exitX=0.5;exitY=1;exitDx=0;exitDy=0;entryX=0.5;entryY=0;entryDx=0;entryDy=0;" edge="1" parent="1" target="3p6yg__9nnK3ZTHGhMpI-112" source="3p6yg__9nnK3ZTHGhMpI-1">
          <mxGeometry relative="1" as="geometry">
            <mxPoint x="525" y="610" as="sourcePoint" />
            <mxPoint x="437.2112699069178" y="630.6056301478372" as="targetPoint" />
          </mxGeometry>
        </mxCell>
        <mxCell id="3p6yg__9nnK3ZTHGhMpI-74" value="Has&lt;br&gt;Minor" style="shape=rhombus;perimeter=rhombusPerimeter;whiteSpace=wrap;html=1;align=center;" vertex="1" parent="1">
          <mxGeometry x="670" y="520" width="70" height="60" as="geometry" />
        </mxCell>
        <mxCell id="3p6yg__9nnK3ZTHGhMpI-75" value="" style="endArrow=none;html=1;rounded=0;entryX=0.086;entryY=0.992;entryDx=0;entryDy=0;exitX=1;exitY=0.5;exitDx=0;exitDy=0;entryPerimeter=0;" edge="1" parent="1" source="3p6yg__9nnK3ZTHGhMpI-74" target="3p6yg__9nnK3ZTHGhMpI-2">
          <mxGeometry relative="1" as="geometry">
            <mxPoint x="900" y="500" as="sourcePoint" />
            <mxPoint x="830" y="580" as="targetPoint" />
          </mxGeometry>
        </mxCell>
        <mxCell id="3p6yg__9nnK3ZTHGhMpI-76" value="1" style="resizable=0;html=1;whiteSpace=wrap;align=right;verticalAlign=bottom;" connectable="0" vertex="1" parent="3p6yg__9nnK3ZTHGhMpI-75">
          <mxGeometry x="1" relative="1" as="geometry">
            <mxPoint x="4" y="30" as="offset" />
          </mxGeometry>
        </mxCell>
        <mxCell id="3p6yg__9nnK3ZTHGhMpI-83" value="" style="endArrow=none;html=1;rounded=0;exitX=1;exitY=0.5;exitDx=0;exitDy=0;entryX=0;entryY=0.5;entryDx=0;entryDy=0;" edge="1" parent="1" source="3p6yg__9nnK3ZTHGhMpI-42" target="3p6yg__9nnK3ZTHGhMpI-2">
          <mxGeometry relative="1" as="geometry">
            <mxPoint x="700" y="440" as="sourcePoint" />
            <mxPoint x="860" y="440" as="targetPoint" />
          </mxGeometry>
        </mxCell>
        <mxCell id="3p6yg__9nnK3ZTHGhMpI-84" value="1" style="resizable=0;html=1;whiteSpace=wrap;align=right;verticalAlign=bottom;" connectable="0" vertex="1" parent="3p6yg__9nnK3ZTHGhMpI-83">
          <mxGeometry x="1" relative="1" as="geometry">
            <mxPoint x="-10" y="-2" as="offset" />
          </mxGeometry>
        </mxCell>
        <mxCell id="3p6yg__9nnK3ZTHGhMpI-85" value="" style="endArrow=none;html=1;rounded=0;exitX=0.5;exitY=0;exitDx=0;exitDy=0;entryX=0.383;entryY=1.016;entryDx=0;entryDy=0;entryPerimeter=0;" edge="1" parent="1" target="3p6yg__9nnK3ZTHGhMpI-50" source="3p6yg__9nnK3ZTHGhMpI-86">
          <mxGeometry relative="1" as="geometry">
            <mxPoint x="1115" y="980" as="sourcePoint" />
            <mxPoint x="1310" y="1230" as="targetPoint" />
          </mxGeometry>
        </mxCell>
        <mxCell id="3p6yg__9nnK3ZTHGhMpI-86" value="ID" style="ellipse;whiteSpace=wrap;html=1;align=center;fontStyle=4" vertex="1" parent="1">
          <mxGeometry x="990" y="820" width="100" height="40" as="geometry" />
        </mxCell>
        <mxCell id="3p6yg__9nnK3ZTHGhMpI-87" value="" style="endArrow=none;html=1;rounded=0;exitX=0.5;exitY=0;exitDx=0;exitDy=0;entryX=0.615;entryY=0.98;entryDx=0;entryDy=0;entryPerimeter=0;" edge="1" parent="1" target="3p6yg__9nnK3ZTHGhMpI-50" source="3p6yg__9nnK3ZTHGhMpI-88">
          <mxGeometry relative="1" as="geometry">
            <mxPoint x="1153" y="980" as="sourcePoint" />
            <mxPoint x="1320" y="1240" as="targetPoint" />
          </mxGeometry>
        </mxCell>
        <mxCell id="3p6yg__9nnK3ZTHGhMpI-88" value="Name" style="ellipse;whiteSpace=wrap;html=1;align=center;" vertex="1" parent="1">
          <mxGeometry x="1060" y="860" width="100" height="40" as="geometry" />
        </mxCell>
        <mxCell id="3p6yg__9nnK3ZTHGhMpI-90" value="" style="endArrow=none;html=1;rounded=0;exitX=0.386;exitY=0.047;exitDx=0;exitDy=0;entryX=0.836;entryY=1.028;entryDx=0;entryDy=0;exitPerimeter=0;entryPerimeter=0;" edge="1" parent="1" source="3p6yg__9nnK3ZTHGhMpI-91" target="3p6yg__9nnK3ZTHGhMpI-50">
          <mxGeometry relative="1" as="geometry">
            <mxPoint x="1243" y="940" as="sourcePoint" />
            <mxPoint x="1193" y="720" as="targetPoint" />
          </mxGeometry>
        </mxCell>
        <mxCell id="3p6yg__9nnK3ZTHGhMpI-91" value="Credit Hours" style="ellipse;whiteSpace=wrap;html=1;align=center;" vertex="1" parent="1">
          <mxGeometry x="1120" y="810" width="100" height="40" as="geometry" />
        </mxCell>
        <mxCell id="3p6yg__9nnK3ZTHGhMpI-94" value="" style="shape=link;html=1;rounded=0;entryX=0.437;entryY=0.02;entryDx=0;entryDy=0;entryPerimeter=0;" edge="1" parent="1" target="3p6yg__9nnK3ZTHGhMpI-50">
          <mxGeometry relative="1" as="geometry">
            <mxPoint x="1000" y="608.89" as="sourcePoint" />
            <mxPoint x="1160" y="608.89" as="targetPoint" />
          </mxGeometry>
        </mxCell>
        <mxCell id="3p6yg__9nnK3ZTHGhMpI-95" value="N" style="resizable=0;html=1;whiteSpace=wrap;align=right;verticalAlign=bottom;" connectable="0" vertex="1" parent="3p6yg__9nnK3ZTHGhMpI-94">
          <mxGeometry x="1" relative="1" as="geometry">
            <mxPoint x="10" y="-4" as="offset" />
          </mxGeometry>
        </mxCell>
        <mxCell id="3p6yg__9nnK3ZTHGhMpI-96" value="" style="shape=link;html=1;rounded=0;exitX=0.5;exitY=0;exitDx=0;exitDy=0;entryX=1;entryY=1;entryDx=0;entryDy=0;" edge="1" parent="1" source="3p6yg__9nnK3ZTHGhMpI-51" target="3p6yg__9nnK3ZTHGhMpI-2">
          <mxGeometry relative="1" as="geometry">
            <mxPoint x="1160" y="540" as="sourcePoint" />
            <mxPoint x="1320" y="540" as="targetPoint" />
          </mxGeometry>
        </mxCell>
        <mxCell id="3p6yg__9nnK3ZTHGhMpI-97" value="1" style="resizable=0;html=1;whiteSpace=wrap;align=right;verticalAlign=bottom;" connectable="0" vertex="1" parent="3p6yg__9nnK3ZTHGhMpI-96">
          <mxGeometry x="1" relative="1" as="geometry">
            <mxPoint x="21" y="17" as="offset" />
          </mxGeometry>
        </mxCell>
        <mxCell id="3p6yg__9nnK3ZTHGhMpI-98" value="prerequisite" style="shape=rhombus;perimeter=rhombusPerimeter;whiteSpace=wrap;html=1;align=center;rotation=30;" vertex="1" parent="1">
          <mxGeometry x="1170" y="600" width="90" height="80" as="geometry" />
        </mxCell>
        <mxCell id="3p6yg__9nnK3ZTHGhMpI-104" value="" style="endArrow=none;html=1;rounded=0;exitX=0.849;exitY=-0.016;exitDx=0;exitDy=0;exitPerimeter=0;entryX=0;entryY=0.5;entryDx=0;entryDy=0;" edge="1" parent="1" source="3p6yg__9nnK3ZTHGhMpI-50" target="3p6yg__9nnK3ZTHGhMpI-98">
          <mxGeometry relative="1" as="geometry">
            <mxPoint x="1090" y="580" as="sourcePoint" />
            <mxPoint x="1250" y="580" as="targetPoint" />
          </mxGeometry>
        </mxCell>
        <mxCell id="3p6yg__9nnK3ZTHGhMpI-105" value="N" style="resizable=0;html=1;whiteSpace=wrap;align=right;verticalAlign=bottom;" connectable="0" vertex="1" parent="3p6yg__9nnK3ZTHGhMpI-104">
          <mxGeometry x="1" relative="1" as="geometry">
            <mxPoint x="-1" y="41" as="offset" />
          </mxGeometry>
        </mxCell>
        <mxCell id="3p6yg__9nnK3ZTHGhMpI-106" value="" style="endArrow=none;html=1;rounded=0;exitX=1;exitY=0.75;exitDx=0;exitDy=0;entryX=1;entryY=0.5;entryDx=0;entryDy=0;" edge="1" parent="1" source="3p6yg__9nnK3ZTHGhMpI-50" target="3p6yg__9nnK3ZTHGhMpI-98">
          <mxGeometry relative="1" as="geometry">
            <mxPoint x="1230" y="720" as="sourcePoint" />
            <mxPoint x="1390" y="720" as="targetPoint" />
          </mxGeometry>
        </mxCell>
        <mxCell id="3p6yg__9nnK3ZTHGhMpI-107" value="N" style="resizable=0;html=1;whiteSpace=wrap;align=right;verticalAlign=bottom;" connectable="0" vertex="1" parent="3p6yg__9nnK3ZTHGhMpI-106">
          <mxGeometry x="1" relative="1" as="geometry">
            <mxPoint x="-48" y="34" as="offset" />
          </mxGeometry>
        </mxCell>
        <mxCell id="3p6yg__9nnK3ZTHGhMpI-108" value="Minimum&lt;br&gt;&amp;nbsp;degree" style="ellipse;whiteSpace=wrap;html=1;align=center;" vertex="1" parent="1">
          <mxGeometry x="565" y="930" width="100" height="40" as="geometry" />
        </mxCell>
        <mxCell id="3p6yg__9nnK3ZTHGhMpI-109" value="" style="endArrow=none;html=1;rounded=0;exitX=1;exitY=1;exitDx=0;exitDy=0;entryX=0.337;entryY=-0.009;entryDx=0;entryDy=0;entryPerimeter=0;" edge="1" parent="1" target="3p6yg__9nnK3ZTHGhMpI-110" source="3p6yg__9nnK3ZTHGhMpI-31">
          <mxGeometry relative="1" as="geometry">
            <mxPoint x="888" y="860" as="sourcePoint" />
            <mxPoint x="1265" y="920" as="targetPoint" />
          </mxGeometry>
        </mxCell>
        <mxCell id="3p6yg__9nnK3ZTHGhMpI-110" value="GPA" style="ellipse;whiteSpace=wrap;html=1;align=center;rotation=-15;" vertex="1" parent="1">
          <mxGeometry x="780" y="940" width="100" height="40" as="geometry" />
        </mxCell>
        <mxCell id="3p6yg__9nnK3ZTHGhMpI-112" value="GPA" style="ellipse;whiteSpace=wrap;html=1;align=center;dashed=1;" vertex="1" parent="1">
          <mxGeometry x="425" y="640" width="100" height="40" as="geometry" />
        </mxCell>
        <mxCell id="3p6yg__9nnK3ZTHGhMpI-113" value="" style="endArrow=none;html=1;rounded=0;exitX=0.377;exitY=1.033;exitDx=0;exitDy=0;exitPerimeter=0;" edge="1" parent="1" target="3p6yg__9nnK3ZTHGhMpI-114" source="3p6yg__9nnK3ZTHGhMpI-1">
          <mxGeometry relative="1" as="geometry">
            <mxPoint x="530" y="590" as="sourcePoint" />
            <mxPoint x="856" y="600" as="targetPoint" />
          </mxGeometry>
        </mxCell>
        <mxCell id="3p6yg__9nnK3ZTHGhMpI-114" value="Total hours" style="ellipse;whiteSpace=wrap;html=1;align=center;" vertex="1" parent="1">
          <mxGeometry x="325" y="661.83" width="100" height="40" as="geometry" />
        </mxCell>
        <mxCell id="3p6yg__9nnK3ZTHGhMpI-115" value="Enroll" style="shape=rhombus;perimeter=rhombusPerimeter;whiteSpace=wrap;html=1;align=center;" vertex="1" parent="1">
          <mxGeometry x="660" y="680" width="90" height="80" as="geometry" />
        </mxCell>
        <mxCell id="3p6yg__9nnK3ZTHGhMpI-116" value="" style="endArrow=none;html=1;rounded=0;exitX=0;exitY=0.5;exitDx=0;exitDy=0;entryX=1;entryY=0;entryDx=0;entryDy=0;" edge="1" parent="1" source="3p6yg__9nnK3ZTHGhMpI-42" target="3p6yg__9nnK3ZTHGhMpI-1">
          <mxGeometry relative="1" as="geometry">
            <mxPoint x="610" y="570" as="sourcePoint" />
            <mxPoint x="770" y="570" as="targetPoint" />
          </mxGeometry>
        </mxCell>
        <mxCell id="3p6yg__9nnK3ZTHGhMpI-117" value="N" style="resizable=0;html=1;whiteSpace=wrap;align=right;verticalAlign=bottom;" connectable="0" vertex="1" parent="3p6yg__9nnK3ZTHGhMpI-116">
          <mxGeometry x="1" relative="1" as="geometry">
            <mxPoint x="5" y="-6" as="offset" />
          </mxGeometry>
        </mxCell>
        <mxCell id="3p6yg__9nnK3ZTHGhMpI-118" value="" style="endArrow=none;html=1;rounded=0;entryX=1;entryY=0.75;entryDx=0;entryDy=0;exitX=0;exitY=0.5;exitDx=0;exitDy=0;" edge="1" parent="1" source="3p6yg__9nnK3ZTHGhMpI-74" target="3p6yg__9nnK3ZTHGhMpI-1">
          <mxGeometry relative="1" as="geometry">
            <mxPoint x="640" y="590" as="sourcePoint" />
            <mxPoint x="800" y="590" as="targetPoint" />
          </mxGeometry>
        </mxCell>
        <mxCell id="3p6yg__9nnK3ZTHGhMpI-119" value="N" style="resizable=0;html=1;whiteSpace=wrap;align=right;verticalAlign=bottom;" connectable="0" vertex="1" parent="3p6yg__9nnK3ZTHGhMpI-118">
          <mxGeometry x="1" relative="1" as="geometry">
            <mxPoint x="31" y="-7" as="offset" />
          </mxGeometry>
        </mxCell>
        <mxCell id="3p6yg__9nnK3ZTHGhMpI-120" value="" style="shape=link;html=1;rounded=0;entryX=0;entryY=0;entryDx=0;entryDy=0;exitX=1;exitY=1;exitDx=0;exitDy=0;" edge="1" parent="1" source="3p6yg__9nnK3ZTHGhMpI-1" target="3p6yg__9nnK3ZTHGhMpI-115">
          <mxGeometry relative="1" as="geometry">
            <mxPoint x="530" y="560" as="sourcePoint" />
            <mxPoint x="690" y="560" as="targetPoint" />
          </mxGeometry>
        </mxCell>
        <mxCell id="3p6yg__9nnK3ZTHGhMpI-121" value="N" style="resizable=0;html=1;whiteSpace=wrap;align=right;verticalAlign=bottom;" connectable="0" vertex="1" parent="3p6yg__9nnK3ZTHGhMpI-120">
          <mxGeometry x="1" relative="1" as="geometry">
            <mxPoint x="4" y="-13" as="offset" />
          </mxGeometry>
        </mxCell>
        <mxCell id="3p6yg__9nnK3ZTHGhMpI-122" value="" style="shape=link;html=1;rounded=0;exitX=1;exitY=0.5;exitDx=0;exitDy=0;entryX=0;entryY=0.5;entryDx=0;entryDy=0;" edge="1" parent="1" source="3p6yg__9nnK3ZTHGhMpI-115" target="3p6yg__9nnK3ZTHGhMpI-50">
          <mxGeometry relative="1" as="geometry">
            <mxPoint x="830" y="730" as="sourcePoint" />
            <mxPoint x="990" y="730" as="targetPoint" />
          </mxGeometry>
        </mxCell>
        <mxCell id="3p6yg__9nnK3ZTHGhMpI-123" value="N" style="resizable=0;html=1;whiteSpace=wrap;align=right;verticalAlign=bottom;" connectable="0" vertex="1" parent="3p6yg__9nnK3ZTHGhMpI-122">
          <mxGeometry x="1" relative="1" as="geometry">
            <mxPoint x="-271" y="-22" as="offset" />
          </mxGeometry>
        </mxCell>
        <mxCell id="3p6yg__9nnK3ZTHGhMpI-126" value="" style="endArrow=none;html=1;rounded=0;exitX=0.5;exitY=0;exitDx=0;exitDy=0;entryX=0.5;entryY=1;entryDx=0;entryDy=0;" edge="1" parent="1" source="3p6yg__9nnK3ZTHGhMpI-31" target="3p6yg__9nnK3ZTHGhMpI-115">
          <mxGeometry relative="1" as="geometry">
            <mxPoint x="730" y="800" as="sourcePoint" />
            <mxPoint x="890" y="800" as="targetPoint" />
          </mxGeometry>
        </mxCell>
        <mxCell id="3p6yg__9nnK3ZTHGhMpI-127" value="N" style="resizable=0;html=1;whiteSpace=wrap;align=right;verticalAlign=bottom;" connectable="0" vertex="1" parent="3p6yg__9nnK3ZTHGhMpI-126">
          <mxGeometry x="1" relative="1" as="geometry">
            <mxPoint x="18" y="19" as="offset" />
          </mxGeometry>
        </mxCell>
      </root>
    </mxGraphModel>
  </diagram>
</mxfile>
